<svg width="159" height="159" viewBox="0 0 159 159" fill="none" xmlns="http://www.w3.org/2000/svg">
<path d="M19.875 74.5312H4.96875C2.226 74.5312 0 76.7572 0 79.5C0 82.2428 2.226 84.4688 4.96875 84.4688H19.875C22.6178 84.4688 24.8438 82.2428 24.8438 79.5C24.8438 76.7572 22.6178 74.5312 19.875 74.5312ZM79.5 24.8438C82.2428 24.8438 84.4688 22.6178 84.4688 19.875V4.96875C84.4688 2.226 82.2428 0 79.5 0C76.7572 0 74.5312 2.226 74.5312 4.96875V19.875C74.5312 22.6178 76.7572 24.8438 79.5 24.8438ZM127.304 38.6567L137.744 28.2173C139.667 26.2945 139.667 23.1789 137.744 21.2561C135.821 19.3333 132.705 19.3333 130.782 21.2561L120.343 31.6956C118.42 33.6184 118.42 36.7339 120.343 38.6567C122.266 40.5798 125.382 40.5798 127.304 38.6567ZM36.8184 115.225L26.3789 125.665C24.4561 127.588 24.4561 130.703 26.3789 132.626C28.3017 134.549 31.4173 134.549 33.3401 132.626L43.7796 122.187C45.7024 120.264 45.7024 117.148 43.7796 115.225C41.8567 113.303 38.7414 113.302 36.8184 115.225ZM33.8273 40.8531C35.7701 42.7959 38.9152 42.7959 40.8529 40.8531C42.7907 38.9103 42.7907 35.7651 40.8529 33.8275L30.3144 23.2836C28.3716 21.3408 25.2264 21.3408 23.2886 23.2836C21.3458 25.2264 21.3458 28.3716 23.2886 30.3095L33.8273 40.8531ZM79.5 134.156C76.7572 134.156 74.5312 136.382 74.5312 139.125V154.031C74.5312 156.774 76.7572 159 79.5 159C82.2428 159 84.4688 156.774 84.4688 154.031V139.125C84.4688 136.382 82.2428 134.156 79.5 134.156ZM125.173 118.147C123.23 116.204 120.085 116.204 118.147 118.147C116.204 120.09 116.204 123.235 118.147 125.173L128.686 135.711C130.628 137.654 133.774 137.654 135.711 135.711C137.649 133.768 137.654 130.623 135.711 128.686L125.173 118.147ZM154.031 74.5312H139.125C136.382 74.5312 134.156 76.7572 134.156 79.5C134.156 82.2428 136.382 84.4688 139.125 84.4688H154.031C156.774 84.4688 159 82.2428 159 79.5C159 76.7572 156.774 74.5312 154.031 74.5312ZM79.5 34.7514C54.7854 34.7514 34.7514 54.7854 34.7514 79.5C34.7514 104.215 54.7854 124.249 79.5 124.249C104.215 124.249 124.249 104.215 124.249 79.5C124.249 54.7854 104.215 34.7514 79.5 34.7514ZM79.5 114.271C60.2958 114.271 44.7286 98.7042 44.7286 79.5C44.7286 60.2958 60.2958 44.7286 79.5 44.7286C98.7042 44.7286 114.271 60.2958 114.271 79.5C114.271 98.7042 98.7042 114.271 79.5 114.271Z" fill="#836A35"/>
</svg>
